<svg width="457" height="457" viewBox="0 0 457 457" fill="none" xmlns="http://www.w3.org/2000/svg">
<g clip-path="url(#clip0_414_116)">
<path d="M272.854 393.021C273.816 392.854 275.465 392.943 275.637 392.482C278.192 385.603 280.952 378.756 282.813 371.678C283.97 367.279 283.694 362.505 284.39 357.117C284.816 338.064 284.894 319.792 285.032 301.521C285.05 299.221 285.386 296.924 285.575 294.626C289.952 301.502 295.059 308.027 298.553 315.325C305.691 330.235 309.28 346.14 307.94 362.781C306.287 383.306 300.02 401.933 285.356 417.233C274.084 428.995 261.044 437.517 244.953 440.438C221.815 444.638 201.033 439.471 182.628 424.304C171.478 415.116 163.539 403.938 158.93 390.483C156.349 382.949 153.933 375.092 153.271 367.226C152.05 352.733 153.161 338.368 158.07 324.298C164.252 306.581 174.401 291.295 185.12 276.234C185.344 275.918 185.314 275.422 185.595 274.116C179.564 277.597 174.192 280.761 168.762 283.82C149.936 294.428 130.243 302.189 108.394 304.145C88.2474 305.948 69.3996 302.372 52.2015 291.935C34.1544 280.983 23.1432 264.622 19.0906 243.933C15.7282 226.768 19.137 210.686 27.88 195.506C40.2225 174.077 59.982 164.026 83.0947 159.768C90.7751 158.352 99.0015 160.196 106.953 159.891C120.256 159.38 131.842 164.768 143.295 170.198C149.72 173.243 155.425 177.831 161.373 181.844C163.607 183.352 164.229 185.183 162.036 187.536C160.052 189.664 158.622 189.696 156.257 187.887C145.616 179.746 133.98 173.599 120.61 171.24C119.963 171.126 119.298 171.07 118.641 171.066C118.33 171.064 118.019 171.249 116.756 171.654C138.39 186.462 159.52 200.924 181.027 215.646C151.607 243.677 120.302 267.705 79.1991 277.92C91.1825 279.98 101.559 277.837 112.139 275.563C135.448 270.552 155.952 259.557 175.577 246.774C190.435 237.095 205.28 227.214 219.023 216.059C232.07 205.468 244.474 193.818 255.681 181.307C265.603 170.231 274.693 157.942 279.1 143.341C281.824 134.314 283.892 124.924 284.819 115.555C286.28 100.787 284.336 86.2594 277.903 72.6157C276.603 69.8601 275.212 67.1476 273.014 64.6236C273.014 69.9155 272.99 75.2077 273.019 80.4995C273.079 91.4799 269.479 101.596 265.142 111.383C257.766 128.025 248.493 143.584 236.272 157.187C225.442 169.243 214.347 181.059 203.454 193.058C201.312 195.418 199.636 196.121 196.957 193.643C193.889 190.804 190.361 188.462 187.068 185.075C187.085 182.584 187.056 180.922 187.052 179.259C186.986 151.832 186.923 124.404 186.92 96.5128C186.989 88.0152 186.997 79.981 187.004 71.9469C187.004 70.0587 187.004 68.1704 187.004 64.9692C180.477 75.0114 178.036 85.0477 175.604 95.9423C175.156 118.327 175.069 139.98 174.896 161.632C174.88 163.692 174.332 165.747 174.031 167.804C169.369 159.857 164.082 152.204 160.182 143.899C152.839 128.263 151.877 111.34 153.177 94.477C154.257 80.4693 158.907 67.3533 166.156 55.1193C178.258 34.6923 195.91 22.2169 219.244 19.002C242.585 15.786 263.386 21.8096 280.573 38.96C293.765 52.1239 302.881 67.2594 306.332 85.6604C310.22 106.387 307.703 126.367 299.638 145.794C293.637 160.252 284.689 172.695 274.301 184.229C273.319 185.32 272.573 186.623 271.304 188.26C270.811 189.038 270.73 189.383 270.649 189.728C271.125 189.516 271.601 189.304 272.077 189.092C279.278 185.429 286.475 181.758 293.681 178.103C310.482 169.58 327.985 162.799 346.604 159.848C373.424 155.598 398.155 161.561 419.226 178.88C432.053 189.422 439.167 204.031 441.992 220.345C445.853 242.643 439.7 261.889 424.109 278.562C409.423 294.266 391.663 302.01 370.436 304.187C343.264 306.973 320.252 298.173 299.334 281.877C297.533 280.474 295.711 279.097 293.688 277.547C295.48 275.611 296.981 273.988 299.046 271.757C313.242 282.305 328.109 291.981 346.868 292.893C337.484 286.664 328.078 280.469 318.722 274.2C302.468 263.309 286.241 252.38 270.014 241.449C266.608 239.155 263.236 236.811 259.879 234.445C257.023 232.432 254.221 232.709 251.734 234.889C237.358 247.485 222.304 259.422 208.906 272.989C194.408 287.67 181.58 304.158 177.554 325.183C173.173 348.067 173.53 370.784 184.181 392.319C184.839 393.65 185.821 394.821 187.034 395.879C185.126 372.555 191.926 351.88 203.18 331.98C211.153 317.884 221.337 305.575 231.481 293.215C237.341 286.074 244.538 280.038 251.035 273.409C252.982 271.423 254.6 269.115 256.785 266.446C260.861 269.45 264.77 272.329 268.978 275.807C270.202 276.918 271.127 277.431 272.051 277.945C272.051 277.945 272.017 277.989 272.008 278.443C272.006 314.486 271.995 350.074 272.054 385.663C272.058 388.116 272.576 390.568 272.854 393.021ZM74.3946 269.011C78.5117 268.042 82.6643 267.201 86.7391 266.078C98.2402 262.909 108.738 257.595 118.611 250.956C126.17 245.873 133.798 240.89 142.017 235.45C126.662 225.019 112.095 214.896 97.2835 205.144C87.9926 199.027 78.2387 194.014 66.3899 196.961C58.0362 199.039 50.5168 202.32 45.585 209.824C40.2014 218.015 37.378 226.626 38.859 236.786C41.7449 256.584 54.9616 267.618 74.3946 269.011ZM333.689 238.874C344.976 246.585 356.067 254.604 367.596 261.935C385.765 273.488 401.556 269.052 414.382 254.566C420.751 247.374 423.264 238.104 422.251 227.585C419.845 202.606 393.689 189.106 373.738 199.218C362.813 204.755 352.439 211.386 341.872 217.617C335.173 221.568 328.576 225.692 321.567 229.961C325.793 233.093 329.43 235.788 333.689 238.874ZM220.061 121.485C223.241 125.366 226.421 129.247 230.125 133.768C234.807 127.921 238.941 122.465 243.386 117.274C251.212 108.135 257.559 98.0927 261.938 86.9144C266.813 74.4691 265.698 62.022 257.719 51.5616C245.34 35.3326 225.247 33.2274 209.041 45.6962C197.857 54.3008 193.941 66.3489 196.543 79.8248C199.643 95.8831 209.58 108.534 220.061 121.485ZM240.427 341.032C237.108 336.838 233.789 332.644 230.016 327.876C229.017 329.159 228.184 330.195 227.385 331.257C220.493 340.422 213.612 349.595 206.719 358.759C198.488 369.703 194.439 381.421 196.862 395.564C201.076 420.162 229.713 429.564 247.96 416.934C262.972 406.543 267.676 394.02 261.921 374.43C258.142 361.566 248.777 351.97 240.427 341.032Z" fill="#41A715"/>
<rect x="357" y="89" width="22" height="22" fill="#41A715"/>
<rect x="82" y="345" width="22" height="22" fill="#41A715"/>
<rect x="82" y="90" width="22" height="22" fill="#41A715"/>
<path d="M272.921 392.554C272.576 390.568 272.058 388.116 272.054 385.663C271.996 350.074 272.006 314.486 272.032 278.427C272.382 279.632 272.975 281.306 272.977 282.981C273.02 319.349 272.997 355.717 272.921 392.554Z" fill="#41A715"/>
<path d="M271.931 277.633C271.127 277.432 270.202 276.918 269.134 276.101C269.93 276.305 270.87 276.812 271.931 277.633Z" fill="#41A715"/>
<rect x="81" y="90" width="22" height="22" fill="#41A715"/>
<rect x="361" y="347" width="22" height="22" fill="#41A715"/>
</g>
<defs>
<clipPath id="clip0_414_116">
<rect width="457" height="457" fill="white"/>
</clipPath>
</defs>
</svg>
